<svg xmlns="http://www.w3.org/2000/svg" xmlns:xlink="http://www.w3.org/1999/xlink" width="500" zoomAndPan="magnify" viewBox="0 0 375 374.999991" height="500" preserveAspectRatio="xMidYMid meet" version="1.0"><defs><g/></defs><g fill="#8fcae5" fill-opacity="1"><g transform="translate(189.031183, 247.138971)"><g><path d="M 65.125 -116.984375 C 61.039062 -116.753906 58.0625 -116.296875 56.1875 -115.609375 C 54.320312 -114.929688 53.046875 -113.628906 52.359375 -111.703125 C 51.679688 -109.773438 51.34375 -106.660156 51.34375 -102.359375 L 51.34375 -14.625 C 51.34375 -11.445312 51.566406 -9.117188 52.015625 -7.640625 C 52.472656 -6.171875 53.269531 -5.179688 54.40625 -4.671875 C 55.539062 -4.160156 57.410156 -3.90625 60.015625 -3.90625 L 65.625 -3.90625 C 69.59375 -3.90625 73.898438 -5.890625 78.546875 -9.859375 C 83.203125 -13.828125 87.398438 -19.066406 91.140625 -25.578125 C 94.878906 -32.097656 97.375 -38.875 98.625 -45.90625 L 102.53125 -45.90625 C 102.1875 -41.820312 102.015625 -36.609375 102.015625 -30.265625 C 102.015625 -18.023438 102.410156 -7.9375 103.203125 0 C 95.492188 -0.34375 82.515625 -0.515625 64.265625 -0.515625 C 37.742188 -0.515625 17.910156 -0.34375 4.765625 0 L 4.765625 -3.40625 C 8.390625 -3.625 11.019531 -4.070312 12.65625 -4.75 C 14.300781 -5.4375 15.40625 -6.742188 15.96875 -8.671875 C 16.539062 -10.597656 16.828125 -13.710938 16.828125 -18.015625 L 16.828125 -102.359375 C 16.828125 -106.660156 16.515625 -109.773438 15.890625 -111.703125 C 15.273438 -113.628906 14.171875 -114.929688 12.578125 -115.609375 C 10.992188 -116.296875 8.390625 -116.753906 4.765625 -116.984375 L 4.765625 -120.375 C 11.222656 -120.039062 21.3125 -119.875 35.03125 -119.875 C 48.0625 -119.875 58.09375 -120.039062 65.125 -120.375 Z M 65.125 -116.984375 "/></g></g></g><g fill="#219ebc" fill-opacity="1"><g transform="translate(122.820039, 247.63471)"><g><path d="M -4.25 28.390625 C 0.28125 27.710938 3.988281 26.296875 6.875 24.140625 C 9.769531 21.984375 12.007812 18.242188 13.59375 12.921875 C 15.1875 7.597656 15.984375 0.171875 15.984375 -9.359375 L 15.984375 -102.359375 C 15.984375 -106.660156 15.671875 -109.773438 15.046875 -111.703125 C 14.421875 -113.628906 13.316406 -114.929688 11.734375 -115.609375 C 10.148438 -116.296875 7.539062 -116.753906 3.90625 -116.984375 L 3.90625 -120.375 C 10.03125 -120.039062 19.5 -119.875 32.3125 -119.875 C 45.570312 -119.875 55.660156 -120.039062 62.578125 -120.375 L 62.578125 -116.984375 C 58.941406 -116.753906 56.300781 -116.296875 54.65625 -115.609375 C 53.019531 -114.929688 51.914062 -113.628906 51.34375 -111.703125 C 50.78125 -109.773438 50.5 -106.660156 50.5 -102.359375 L 50.5 -26.015625 C 50.5 -19.441406 50.300781 -13.660156 49.90625 -8.671875 C 49.507812 -3.679688 48.742188 0.625 47.609375 4.25 C 44.890625 12.519531 39.164062 19.207031 30.4375 24.3125 C 21.707031 29.414062 10.144531 31.96875 -4.25 31.96875 Z M -4.25 28.390625 "/></g></g></g><path fill="#013047" d="M 99.125 176.210938 L 283.429688 176.210938 C 286.519531 176.210938 289.027344 178.71875 289.027344 181.808594 L 289.027344 193.003906 C 289.027344 196.09375 286.519531 198.601562 283.429688 198.601562 L 99.125 198.601562 C 97.640625 198.601562 96.214844 198.011719 95.164062 196.960938 C 94.117188 195.910156 93.527344 194.488281 93.527344 193.003906 L 93.527344 181.808594 C 93.527344 180.324219 94.117188 178.902344 95.164062 177.851562 C 96.214844 176.800781 97.640625 176.210938 99.125 176.210938 " fill-opacity="1" fill-rule="nonzero"/><g fill="#f3f3f3" fill-opacity="1"><g transform="translate(100.257449, 191.530975)"><g><path d="M 6.421875 -2.4375 C 6.421875 -1.894531 6.285156 -1.429688 6.015625 -1.046875 C 5.753906 -0.671875 5.378906 -0.378906 4.890625 -0.171875 C 4.410156 0.0234375 3.835938 0.125 3.171875 0.125 C 2.828125 0.125 2.5 0.109375 2.1875 0.078125 C 1.882812 0.046875 1.601562 0 1.34375 -0.0625 C 1.082031 -0.125 0.851562 -0.203125 0.65625 -0.296875 L 0.65625 -1.328125 C 0.96875 -1.191406 1.347656 -1.066406 1.796875 -0.953125 C 2.253906 -0.847656 2.726562 -0.796875 3.21875 -0.796875 C 3.675781 -0.796875 4.0625 -0.859375 4.375 -0.984375 C 4.695312 -1.109375 4.941406 -1.285156 5.109375 -1.515625 C 5.273438 -1.742188 5.359375 -2.023438 5.359375 -2.359375 C 5.359375 -2.671875 5.289062 -2.929688 5.15625 -3.140625 C 5.019531 -3.347656 4.789062 -3.535156 4.46875 -3.703125 C 4.144531 -3.878906 3.707031 -4.066406 3.15625 -4.265625 C 2.769531 -4.410156 2.425781 -4.5625 2.125 -4.71875 C 1.832031 -4.882812 1.582031 -5.070312 1.375 -5.28125 C 1.175781 -5.488281 1.023438 -5.726562 0.921875 -6 C 0.828125 -6.28125 0.78125 -6.601562 0.78125 -6.96875 C 0.78125 -7.445312 0.90625 -7.863281 1.15625 -8.21875 C 1.40625 -8.570312 1.75 -8.835938 2.1875 -9.015625 C 2.625 -9.203125 3.128906 -9.296875 3.703125 -9.296875 C 4.191406 -9.296875 4.644531 -9.25 5.0625 -9.15625 C 5.476562 -9.070312 5.859375 -8.953125 6.203125 -8.796875 L 5.875 -7.875 C 5.539062 -8.007812 5.1875 -8.125 4.8125 -8.21875 C 4.445312 -8.3125 4.070312 -8.359375 3.6875 -8.359375 C 3.289062 -8.359375 2.957031 -8.300781 2.6875 -8.1875 C 2.414062 -8.070312 2.207031 -7.910156 2.0625 -7.703125 C 1.925781 -7.492188 1.859375 -7.242188 1.859375 -6.953125 C 1.859375 -6.628906 1.925781 -6.359375 2.0625 -6.140625 C 2.195312 -5.929688 2.410156 -5.742188 2.703125 -5.578125 C 3.003906 -5.421875 3.40625 -5.25 3.90625 -5.0625 C 4.4375 -4.863281 4.890625 -4.65625 5.265625 -4.4375 C 5.648438 -4.21875 5.9375 -3.953125 6.125 -3.640625 C 6.320312 -3.328125 6.421875 -2.925781 6.421875 -2.4375 Z M 6.421875 -2.4375 "/></g></g></g><g fill="#f3f3f3" fill-opacity="1"><g transform="translate(110.504706, 191.530975)"><g><path d="M 9.203125 -4.59375 C 9.203125 -3.882812 9.113281 -3.238281 8.9375 -2.65625 C 8.757812 -2.082031 8.492188 -1.585938 8.140625 -1.171875 C 7.785156 -0.753906 7.347656 -0.429688 6.828125 -0.203125 C 6.304688 0.015625 5.695312 0.125 5 0.125 C 4.289062 0.125 3.671875 0.015625 3.140625 -0.203125 C 2.617188 -0.429688 2.179688 -0.753906 1.828125 -1.171875 C 1.472656 -1.597656 1.207031 -2.097656 1.03125 -2.671875 C 0.863281 -3.253906 0.78125 -3.898438 0.78125 -4.609375 C 0.78125 -5.546875 0.9375 -6.367188 1.25 -7.078125 C 1.5625 -7.785156 2.03125 -8.332031 2.65625 -8.71875 C 3.28125 -9.113281 4.066406 -9.3125 5.015625 -9.3125 C 5.929688 -9.3125 6.695312 -9.113281 7.3125 -8.71875 C 7.9375 -8.332031 8.40625 -7.785156 8.71875 -7.078125 C 9.039062 -6.378906 9.203125 -5.550781 9.203125 -4.59375 Z M 1.90625 -4.59375 C 1.90625 -3.820312 2.015625 -3.148438 2.234375 -2.578125 C 2.460938 -2.003906 2.800781 -1.5625 3.25 -1.25 C 3.707031 -0.945312 4.289062 -0.796875 5 -0.796875 C 5.71875 -0.796875 6.300781 -0.945312 6.75 -1.25 C 7.207031 -1.5625 7.539062 -2.003906 7.75 -2.578125 C 7.96875 -3.148438 8.078125 -3.820312 8.078125 -4.59375 C 8.078125 -5.78125 7.828125 -6.707031 7.328125 -7.375 C 6.835938 -8.039062 6.066406 -8.375 5.015625 -8.375 C 4.304688 -8.375 3.722656 -8.21875 3.265625 -7.90625 C 2.804688 -7.601562 2.460938 -7.171875 2.234375 -6.609375 C 2.015625 -6.046875 1.90625 -5.375 1.90625 -4.59375 Z M 1.90625 -4.59375 "/></g></g></g><g fill="#f3f3f3" fill-opacity="1"><g transform="translate(123.696813, 191.530975)"><g><path d="M 2.328125 0 L 1.25 0 L 1.25 -9.171875 L 6.359375 -9.171875 L 6.359375 -8.234375 L 2.328125 -8.234375 L 2.328125 -4.859375 L 6.109375 -4.859375 L 6.109375 -3.9375 L 2.328125 -3.9375 Z M 2.328125 0 "/></g></g></g><g fill="#f3f3f3" fill-opacity="1"><g transform="translate(133.530538, 191.530975)"><g><path d="M 4.0625 0 L 3 0 L 3 -8.234375 L 0.109375 -8.234375 L 0.109375 -9.171875 L 6.9375 -9.171875 L 6.9375 -8.234375 L 4.0625 -8.234375 Z M 4.0625 0 "/></g></g></g><g fill="#f3f3f3" fill-opacity="1"><g transform="translate(143.809117, 191.530975)"><g><path d="M 11.671875 -9.171875 L 9.21875 0 L 8.140625 0 L 6.328125 -6.171875 C 6.273438 -6.347656 6.222656 -6.523438 6.171875 -6.703125 C 6.128906 -6.878906 6.085938 -7.046875 6.046875 -7.203125 C 6.003906 -7.367188 5.96875 -7.515625 5.9375 -7.640625 C 5.90625 -7.765625 5.882812 -7.859375 5.875 -7.921875 C 5.863281 -7.859375 5.847656 -7.765625 5.828125 -7.640625 C 5.804688 -7.515625 5.773438 -7.375 5.734375 -7.21875 C 5.703125 -7.0625 5.660156 -6.890625 5.609375 -6.703125 C 5.566406 -6.523438 5.519531 -6.347656 5.46875 -6.171875 L 3.6875 0 L 2.625 0 L 0.1875 -9.171875 L 1.296875 -9.171875 L 2.765625 -3.421875 C 2.816406 -3.222656 2.863281 -3.03125 2.90625 -2.84375 C 2.957031 -2.664062 3 -2.488281 3.03125 -2.3125 C 3.0625 -2.132812 3.09375 -1.960938 3.125 -1.796875 C 3.15625 -1.628906 3.1875 -1.460938 3.21875 -1.296875 C 3.238281 -1.460938 3.265625 -1.632812 3.296875 -1.8125 C 3.328125 -1.988281 3.363281 -2.171875 3.40625 -2.359375 C 3.445312 -2.546875 3.488281 -2.734375 3.53125 -2.921875 C 3.582031 -3.109375 3.632812 -3.296875 3.6875 -3.484375 L 5.34375 -9.171875 L 6.4375 -9.171875 L 8.15625 -3.4375 C 8.207031 -3.238281 8.257812 -3.039062 8.3125 -2.84375 C 8.363281 -2.65625 8.410156 -2.46875 8.453125 -2.28125 C 8.492188 -2.101562 8.53125 -1.929688 8.5625 -1.765625 C 8.59375 -1.609375 8.617188 -1.453125 8.640625 -1.296875 C 8.671875 -1.503906 8.707031 -1.71875 8.75 -1.9375 C 8.789062 -2.164062 8.835938 -2.40625 8.890625 -2.65625 C 8.953125 -2.90625 9.015625 -3.160156 9.078125 -3.421875 L 10.5625 -9.171875 Z M 11.671875 -9.171875 "/></g></g></g><g fill="#f3f3f3" fill-opacity="1"><g transform="translate(158.868384, 191.530975)"><g><path d="M 7 0 L 5.875 -2.90625 L 2.203125 -2.90625 L 1.078125 0 L 0 0 L 3.59375 -9.203125 L 4.546875 -9.203125 L 8.109375 0 Z M 5.5625 -3.859375 L 4.484375 -6.75 C 4.460938 -6.820312 4.421875 -6.941406 4.359375 -7.109375 C 4.304688 -7.285156 4.25 -7.460938 4.1875 -7.640625 C 4.125 -7.828125 4.078125 -7.976562 4.046875 -8.09375 C 4.003906 -7.925781 3.957031 -7.753906 3.90625 -7.578125 C 3.863281 -7.410156 3.816406 -7.253906 3.765625 -7.109375 C 3.722656 -6.972656 3.6875 -6.851562 3.65625 -6.75 L 2.5625 -3.859375 Z M 5.5625 -3.859375 "/></g></g></g><g fill="#f3f3f3" fill-opacity="1"><g transform="translate(170.193331, 191.530975)"><g><path d="M 3.734375 -9.171875 C 4.484375 -9.171875 5.101562 -9.078125 5.59375 -8.890625 C 6.082031 -8.703125 6.445312 -8.414062 6.6875 -8.03125 C 6.9375 -7.65625 7.0625 -7.171875 7.0625 -6.578125 C 7.0625 -6.097656 6.972656 -5.695312 6.796875 -5.375 C 6.617188 -5.050781 6.390625 -4.785156 6.109375 -4.578125 C 5.828125 -4.378906 5.523438 -4.226562 5.203125 -4.125 L 7.71875 0 L 6.46875 0 L 4.234375 -3.828125 L 2.328125 -3.828125 L 2.328125 0 L 1.25 0 L 1.25 -9.171875 Z M 3.671875 -8.25 L 2.328125 -8.25 L 2.328125 -4.734375 L 3.78125 -4.734375 C 4.519531 -4.734375 5.066406 -4.882812 5.421875 -5.1875 C 5.773438 -5.488281 5.953125 -5.9375 5.953125 -6.53125 C 5.953125 -7.15625 5.765625 -7.597656 5.390625 -7.859375 C 5.015625 -8.117188 4.441406 -8.25 3.671875 -8.25 Z M 3.671875 -8.25 "/></g></g></g><g fill="#f3f3f3" fill-opacity="1"><g transform="translate(181.324037, 191.530975)"><g><path d="M 6.359375 0 L 1.25 0 L 1.25 -9.171875 L 6.359375 -9.171875 L 6.359375 -8.234375 L 2.328125 -8.234375 L 2.328125 -5.265625 L 6.125 -5.265625 L 6.125 -4.328125 L 2.328125 -4.328125 L 2.328125 -0.9375 L 6.359375 -0.9375 Z M 6.359375 0 "/></g></g></g><g fill="#f3f3f3" fill-opacity="1"><g transform="translate(191.665272, 191.530975)"><g/></g></g><g fill="#f3f3f3" fill-opacity="1"><g transform="translate(198.20953, 191.530975)"><g><path d="M 6.359375 0 L 1.25 0 L 1.25 -9.171875 L 6.359375 -9.171875 L 6.359375 -8.234375 L 2.328125 -8.234375 L 2.328125 -5.265625 L 6.125 -5.265625 L 6.125 -4.328125 L 2.328125 -4.328125 L 2.328125 -0.9375 L 6.359375 -0.9375 Z M 6.359375 0 "/></g></g></g><g fill="#f3f3f3" fill-opacity="1"><g transform="translate(208.550766, 191.530975)"><g><path d="M 8.421875 0 L 7.1875 0 L 2.1875 -7.703125 L 2.140625 -7.703125 C 2.148438 -7.492188 2.164062 -7.257812 2.1875 -7 C 2.207031 -6.738281 2.222656 -6.457031 2.234375 -6.15625 C 2.242188 -5.863281 2.25 -5.566406 2.25 -5.265625 L 2.25 0 L 1.25 0 L 1.25 -9.171875 L 2.484375 -9.171875 L 7.453125 -1.5 L 7.5 -1.5 C 7.488281 -1.644531 7.476562 -1.847656 7.46875 -2.109375 C 7.457031 -2.378906 7.445312 -2.671875 7.4375 -2.984375 C 7.425781 -3.296875 7.421875 -3.585938 7.421875 -3.859375 L 7.421875 -9.171875 L 8.421875 -9.171875 Z M 8.421875 0 "/></g></g></g><g fill="#f3f3f3" fill-opacity="1"><g transform="translate(221.423319, 191.530975)"><g><path d="M 5.171875 -4.796875 L 8.375 -4.796875 L 8.375 -0.359375 C 7.894531 -0.191406 7.398438 -0.0703125 6.890625 0 C 6.390625 0.0820312 5.820312 0.125 5.1875 0.125 C 4.238281 0.125 3.4375 -0.0625 2.78125 -0.4375 C 2.125 -0.820312 1.625 -1.363281 1.28125 -2.0625 C 0.945312 -2.769531 0.78125 -3.609375 0.78125 -4.578125 C 0.78125 -5.535156 0.96875 -6.363281 1.34375 -7.0625 C 1.71875 -7.769531 2.257812 -8.316406 2.96875 -8.703125 C 3.675781 -9.097656 4.53125 -9.296875 5.53125 -9.296875 C 6.039062 -9.296875 6.519531 -9.25 6.96875 -9.15625 C 7.425781 -9.0625 7.851562 -8.929688 8.25 -8.765625 L 7.84375 -7.828125 C 7.507812 -7.972656 7.132812 -8.097656 6.71875 -8.203125 C 6.3125 -8.304688 5.894531 -8.359375 5.46875 -8.359375 C 4.71875 -8.359375 4.070312 -8.203125 3.53125 -7.890625 C 3 -7.585938 2.59375 -7.15625 2.3125 -6.59375 C 2.03125 -6.03125 1.890625 -5.359375 1.890625 -4.578125 C 1.890625 -3.816406 2.015625 -3.148438 2.265625 -2.578125 C 2.515625 -2.015625 2.898438 -1.578125 3.421875 -1.265625 C 3.941406 -0.953125 4.613281 -0.796875 5.4375 -0.796875 C 5.851562 -0.796875 6.207031 -0.816406 6.5 -0.859375 C 6.800781 -0.910156 7.070312 -0.972656 7.3125 -1.046875 L 7.3125 -3.84375 L 5.171875 -3.84375 Z M 5.171875 -4.796875 "/></g></g></g><g fill="#f3f3f3" fill-opacity="1"><g transform="translate(233.9638, 191.530975)"><g><path d="M 1.25 0 L 1.25 -9.171875 L 2.328125 -9.171875 L 2.328125 0 Z M 1.25 0 "/></g></g></g><g fill="#f3f3f3" fill-opacity="1"><g transform="translate(240.758683, 191.530975)"><g><path d="M 8.421875 0 L 7.1875 0 L 2.1875 -7.703125 L 2.140625 -7.703125 C 2.148438 -7.492188 2.164062 -7.257812 2.1875 -7 C 2.207031 -6.738281 2.222656 -6.457031 2.234375 -6.15625 C 2.242188 -5.863281 2.25 -5.566406 2.25 -5.265625 L 2.25 0 L 1.25 0 L 1.25 -9.171875 L 2.484375 -9.171875 L 7.453125 -1.5 L 7.5 -1.5 C 7.488281 -1.644531 7.476562 -1.847656 7.46875 -2.109375 C 7.457031 -2.378906 7.445312 -2.671875 7.4375 -2.984375 C 7.425781 -3.296875 7.421875 -3.585938 7.421875 -3.859375 L 7.421875 -9.171875 L 8.421875 -9.171875 Z M 8.421875 0 "/></g></g></g><g fill="#f3f3f3" fill-opacity="1"><g transform="translate(253.631237, 191.530975)"><g><path d="M 6.359375 0 L 1.25 0 L 1.25 -9.171875 L 6.359375 -9.171875 L 6.359375 -8.234375 L 2.328125 -8.234375 L 2.328125 -5.265625 L 6.125 -5.265625 L 6.125 -4.328125 L 2.328125 -4.328125 L 2.328125 -0.9375 L 6.359375 -0.9375 Z M 6.359375 0 "/></g></g></g><g fill="#f3f3f3" fill-opacity="1"><g transform="translate(263.972472, 191.530975)"><g><path d="M 6.359375 0 L 1.25 0 L 1.25 -9.171875 L 6.359375 -9.171875 L 6.359375 -8.234375 L 2.328125 -8.234375 L 2.328125 -5.265625 L 6.125 -5.265625 L 6.125 -4.328125 L 2.328125 -4.328125 L 2.328125 -0.9375 L 6.359375 -0.9375 Z M 6.359375 0 "/></g></g></g><g fill="#f3f3f3" fill-opacity="1"><g transform="translate(274.313708, 191.530975)"><g><path d="M 3.734375 -9.171875 C 4.484375 -9.171875 5.101562 -9.078125 5.59375 -8.890625 C 6.082031 -8.703125 6.445312 -8.414062 6.6875 -8.03125 C 6.9375 -7.65625 7.0625 -7.171875 7.0625 -6.578125 C 7.0625 -6.097656 6.972656 -5.695312 6.796875 -5.375 C 6.617188 -5.050781 6.390625 -4.785156 6.109375 -4.578125 C 5.828125 -4.378906 5.523438 -4.226562 5.203125 -4.125 L 7.71875 0 L 6.46875 0 L 4.234375 -3.828125 L 2.328125 -3.828125 L 2.328125 0 L 1.25 0 L 1.25 -9.171875 Z M 3.671875 -8.25 L 2.328125 -8.25 L 2.328125 -4.734375 L 3.78125 -4.734375 C 4.519531 -4.734375 5.066406 -4.882812 5.421875 -5.1875 C 5.773438 -5.488281 5.953125 -5.9375 5.953125 -6.53125 C 5.953125 -7.15625 5.765625 -7.597656 5.390625 -7.859375 C 5.015625 -8.117188 4.441406 -8.25 3.671875 -8.25 Z M 3.671875 -8.25 "/></g></g></g></svg>