<svg width="100" height="100" viewBox="0 0 100 100" fill="none" xmlns="http://www.w3.org/2000/svg">
<path d="M98.1055 37.2656C98.8672 36.6602 100 37.2266 100 38.1836V78.125C100 83.3008 95.8008 87.5 90.625 87.5H9.375C4.19922 87.5 0 83.3008 0 78.125V38.2031C0 37.2266 1.11328 36.6797 1.89453 37.2852C6.26953 40.6836 12.0703 45 31.9922 59.4727C36.1133 62.4805 43.0664 68.8086 50 68.7695C56.9727 68.8281 64.0625 62.3633 68.0273 59.4727C87.9492 45 93.7305 40.6641 98.1055 37.2656ZM50 62.5C54.5313 62.5781 61.0547 56.7969 64.3359 54.4141C90.2539 35.6055 92.2266 33.9648 98.2031 29.2773C99.3359 28.3984 100 27.0313 100 25.5859V21.875C100 16.6992 95.8008 12.5 90.625 12.5H9.375C4.19922 12.5 0 16.6992 0 21.875V25.5859C0 27.0313 0.664062 28.3789 1.79687 29.2773C7.77344 33.9453 9.7461 35.6055 35.6641 54.4141C38.9453 56.7969 45.4687 62.5781 50 62.5Z" fill="#F3F3F3"/>
</svg>
