<svg width="100" height="100" viewBox="0 0 100 100" fill="none" xmlns="http://www.w3.org/2000/svg">
<path d="M84.375 6.25H15.625C10.4492 6.25 6.25 10.4492 6.25 15.625V84.375C6.25 89.5508 10.4492 93.75 15.625 93.75H84.375C89.5508 93.75 93.75 89.5508 93.75 84.375V15.625C93.75 10.4492 89.5508 6.25 84.375 6.25ZM60.4102 81.1914C58.7695 81.4844 58.1641 80.4688 58.1641 79.6289C58.1641 78.5742 58.2031 73.1836 58.2031 68.8281C58.2031 65.7812 57.1875 63.8477 55.9961 62.832C63.2227 62.0313 70.8398 61.0352 70.8398 48.5547C70.8398 45 69.5703 43.2227 67.5 40.9375C67.832 40.0977 68.9453 36.6406 67.168 32.1484C64.4531 31.3086 58.2422 35.6445 58.2422 35.6445C55.6641 34.9219 52.8711 34.5508 50.1172 34.5508C47.3633 34.5508 44.5703 34.9219 41.9922 35.6445C41.9922 35.6445 35.7813 31.3086 33.0664 32.1484C31.2891 36.6211 32.3828 40.0781 32.7344 40.9375C30.6641 43.2227 29.6875 45 29.6875 48.5547C29.6875 60.9766 36.9727 62.0313 44.1992 62.832C43.2617 63.6719 42.4219 65.1172 42.1289 67.1875C40.2734 68.0273 35.5273 69.4727 32.6953 64.4727C30.918 61.3867 27.7148 61.1328 27.7148 61.1328C24.5508 61.0937 27.5 63.125 27.5 63.125C29.6094 64.1016 31.0937 67.8516 31.0937 67.8516C32.9883 73.6523 42.0508 71.6992 42.0508 71.6992C42.0508 74.4141 42.0898 78.8281 42.0898 79.6289C42.0898 80.4688 41.5039 81.4844 39.8438 81.1914C26.9531 76.875 17.9297 64.6094 17.9297 50.2734C17.9297 32.3437 31.6406 18.7305 49.5703 18.7305C67.5 18.7305 82.0312 32.3437 82.0312 50.2734C82.0508 64.6094 73.3008 76.8945 60.4102 81.1914ZM41.25 69.2578C40.8789 69.3359 40.5273 69.1797 40.4883 68.9258C40.4492 68.6328 40.7031 68.3789 41.0742 68.3008C41.4453 68.2617 41.7969 68.418 41.8359 68.6719C41.8945 68.9258 41.6406 69.1797 41.25 69.2578ZM39.3945 69.082C39.3945 69.3359 39.1016 69.5508 38.7109 69.5508C38.2812 69.5898 37.9883 69.375 37.9883 69.082C37.9883 68.8281 38.2812 68.6133 38.6719 68.6133C39.043 68.5742 39.3945 68.7891 39.3945 69.082ZM36.7188 68.8672C36.6406 69.1211 36.25 69.2383 35.918 69.1211C35.5469 69.043 35.293 68.75 35.3711 68.4961C35.4492 68.2422 35.8398 68.125 36.1719 68.2031C36.5625 68.3203 36.8164 68.6133 36.7188 68.8672ZM34.3164 67.8125C34.1406 68.0273 33.7695 67.9883 33.4766 67.6953C33.1836 67.4414 33.1055 67.0703 33.3008 66.8945C33.4766 66.6797 33.8477 66.7188 34.1406 67.0117C34.3945 67.2656 34.4922 67.6563 34.3164 67.8125ZM32.5391 66.0352C32.3633 66.1523 32.0312 66.0352 31.8164 65.7422C31.6016 65.4492 31.6016 65.1172 31.8164 64.9805C32.0312 64.8047 32.3633 64.9414 32.5391 65.2344C32.7539 65.5273 32.7539 65.8789 32.5391 66.0352ZM31.2695 64.1406C31.0938 64.3164 30.8008 64.2187 30.5859 64.0234C30.3711 63.7695 30.332 63.4766 30.5078 63.3398C30.6836 63.1641 30.9766 63.2617 31.1914 63.457C31.4062 63.7109 31.4453 64.0039 31.2695 64.1406ZM29.9609 62.6953C29.8828 62.8711 29.6289 62.9102 29.4141 62.7734C29.1602 62.6562 29.043 62.4414 29.1211 62.2656C29.1992 62.1484 29.4141 62.0898 29.668 62.1875C29.9219 62.3242 30.0391 62.5391 29.9609 62.6953Z" fill="#F3F3F3"/>
</svg>
