<svg width="100" height="100" viewBox="0 0 100 100" fill="none" xmlns="http://www.w3.org/2000/svg">
<path d="M87.5 6.25H12.4805C9.04297 6.25 6.25 9.08203 6.25 12.5586V87.4414C6.25 90.918 9.04297 93.75 12.4805 93.75H87.5C90.9375 93.75 93.75 90.918 93.75 87.4414V12.5586C93.75 9.08203 90.9375 6.25 87.5 6.25ZM32.6953 81.25H19.7266V39.4922H32.7148V81.25H32.6953ZM26.2109 33.7891C22.0508 33.7891 18.6914 30.4102 18.6914 26.2695C18.6914 22.1289 22.0508 18.75 26.2109 18.75C30.3516 18.75 33.7305 22.1289 33.7305 26.2695C33.7305 30.4297 30.3711 33.7891 26.2109 33.7891ZM81.3086 81.25H68.3398V60.9375C68.3398 56.0938 68.2422 49.8633 61.6016 49.8633C54.8437 49.8633 53.8086 55.1367 53.8086 60.5859V81.25H40.8398V39.4922H53.2813V45.1953H53.457C55.1953 41.9141 59.4336 38.457 65.7422 38.457C78.8672 38.457 81.3086 47.1094 81.3086 58.3594V81.25Z" fill="#F3F3F3"/>
</svg>
