<svg width="16" height="16" viewBox="0 0 16 16" fill="none" xmlns="http://www.w3.org/2000/svg">
<path d="M7.26017 0.813539C7.65692 0.377267 8.34308 0.377268 8.73983 0.81354L9.72601 1.89797C9.94732 2.14133 10.2742 2.26029 10.6001 2.21612L12.0526 2.0193C12.637 1.94012 13.1626 2.38118 13.1861 2.97041L13.2445 4.43503C13.2576 4.76371 13.4315 5.06492 13.7096 5.24061L14.9488 6.0235C15.4474 6.33845 15.5665 7.0142 15.2058 7.48067L14.309 8.64018C14.1078 8.90038 14.0474 9.24291 14.1475 9.55625L14.5936 10.9525C14.773 11.5142 14.4299 12.1085 13.8537 12.2339L12.4215 12.5458C12.1001 12.6158 11.8337 12.8393 11.7089 13.1437L11.1531 14.5C10.9295 15.0457 10.2847 15.2804 9.7627 15.0061L8.4651 14.3244C8.17391 14.1714 7.82609 14.1714 7.5349 14.3244L6.2373 15.0061C5.71527 15.2804 5.07048 15.0457 4.84687 14.5L4.29107 13.1437C4.16634 12.8393 3.8999 12.6158 3.57849 12.5458L2.14626 12.2339C1.57006 12.1085 1.22698 11.5142 1.40643 10.9525L1.85249 9.55625C1.95259 9.24291 1.89219 8.90038 1.69096 8.64018L0.794249 7.48067C0.433498 7.0142 0.55265 6.33845 1.05119 6.0235L2.2904 5.24061C2.56849 5.06492 2.74239 4.76371 2.7555 4.43503L2.81389 2.9704C2.83738 2.38118 3.36302 1.94012 3.94737 2.0193L5.39989 2.21612C5.72585 2.26029 6.05269 2.14133 6.27399 1.89797L7.26017 0.813539Z" fill="#219EBC"/>
</svg>
